<svg version="1.1" xmlns="http://www.w3.org/2000/svg" xmlns:xlink="http://www.w3.org/1999/xlink" width="313.39878" height="347.95688" viewBox="0,0,313.39878,347.95688"><g transform="translate(-83.30062,-5.64656)"><g data-paper-data="{&quot;isPaintingLayer&quot;:true}" stroke-linecap="butt" stroke-miterlimit="10" stroke-dasharray="" stroke-dashoffset="0" style="mix-blend-mode: normal"><path d="M84.80073,327.92665c0,0 -0.86614,-320.78009 156.35166,-320.78009c156.92764,0 154.04339,320.78009 154.04339,320.78009z" fill="#ffed00" fill-rule="evenodd" stroke="#007a3e" stroke-width="3" stroke-linejoin="miter"/><path d="M361.73237,313.78688c0,0 -34.6197,39.81656 -120.004,39.81656c-78.17799,0 -125.19652,-39.5264 -125.19652,-39.5264z" fill="#e63027" fill-rule="evenodd" stroke="none" stroke-width="1.5" stroke-linejoin="miter"/><path d="M116.53185,314.07704v-56.82759h245.20052v56.82759z" fill="#e63027" fill-rule="nonzero" stroke="none" stroke-width="1.5" stroke-linejoin="miter"/><path d="M157.7862,276.58174v12.97914l-17.30985,10.38071v0h17.59568v9.5189h-37.20947v-13.55513l17.88151,-9.80906v-0.28583h-17.30985v-9.23308h36.35199zM131.24327,272.83135v-10.96103h17.30985v10.96103z" fill="#ffffff" fill-rule="evenodd" stroke="none" stroke-width="1.5" stroke-linejoin="miter"/><path d="M183.45865,275.71127c10.09489,0 21.92639,1.73662 21.92639,13.56379v20.18977h-16.15355v-4.90236v0c-2.30827,3.7504 -6.92481,5.76851 -11.82717,5.76851c-6.63465,0 -12.98347,-2.88858 -12.98347,-9.80906c0,-10.09922 9.80906,-12.12166 18.46182,-12.12166c2.30827,0 5.19252,0.29016 6.63465,0.29016c0,-4.04055 -4.61654,-4.61654 -8.94292,-4.61654c-4.33071,0 -8.65709,1.16063 -12.11733,2.88858v-9.23308c5.19252,-1.44213 8.36693,-2.01811 15.00158,-2.01811zM187.78503,295.03923c-3.46024,0 -7.49646,0.29016 -7.49646,3.75473c0,2.02244 1.15197,3.17008 4.03622,3.17008c3.46024,0 5.19252,-3.17008 5.19252,-6.05433v-0.87047z" fill="#ffffff" fill-rule="evenodd" stroke="none" stroke-width="1.5" stroke-linejoin="miter"/><path d="M231.63348,261.86599v18.74765v0c2.88425,-3.46024 6.34449,-4.9067 10.96103,-4.9067c10.67087,0 15.28741,7.79528 15.28741,16.7382c0,9.51457 -4.33071,17.88151 -15.86772,17.88151c-5.48268,0 -9.22874,-2.01811 -11.53701,-6.92914h-0.29016v6.05866h-15.86772v-47.59451h17.31418zM239.71026,292.44947c0,-3.4689 -0.57598,-6.92914 -4.32638,-6.92914c-3.7504,0 -4.32638,3.46024 -4.32638,7.2063c0,3.17874 0.57598,6.92914 4.32638,6.92914c3.7504,0 4.32638,-3.74606 4.32638,-7.2063z" fill="#ffffff" fill-rule="evenodd" stroke="none" stroke-width="1.5" stroke-linejoin="miter"/><path d="M282.97839,289.56088l10.09922,-12.97914h19.61379l-12.113,14.42127l12.40316,18.46182h-20.19411l-9.80906,-16.15788v0v16.15788h-17.59568v-47.59884h17.59568z" fill="#ffffff" fill-rule="evenodd" stroke="none" stroke-width="1.5" stroke-linejoin="miter"/><path d="M336.05991,275.71127c10.09489,0 22.21222,1.73662 22.21222,13.56379v20.18977h-16.15355v-4.90236h-0.28583c-2.30827,3.7504 -6.92048,5.76851 -11.82284,5.76851c-6.63465,0 -12.98347,-2.88858 -12.98347,-9.80906c0,-10.09922 9.80473,-12.12166 18.46182,-12.12166c2.59843,0 5.19685,0.29016 6.92481,0.29016c-0.29016,-4.04055 -4.9067,-4.61654 -9.23308,-4.61654c-4.32638,0 -8.65276,1.16063 -12.113,2.88858v-9.23308c5.18386,-1.44213 8.35394,-2.01811 14.99292,-2.01811zM340.67645,295.03923c-3.75473,0 -7.79095,0.29016 -7.79095,3.75473c0,2.02244 1.44213,3.17008 4.03622,3.17008c3.46457,0 5.48268,-3.17008 5.48268,-6.05433v-0.87047z" fill="#ffffff" fill-rule="evenodd" stroke="none" stroke-width="1.5" stroke-linejoin="miter"/><path d="M212.59134,227.53644c27.98072,25.09647 29.70868,30.28899 -16.15355,30.00317c-45.86656,-0.58032 -6.92481,-10.96536 -6.92481,-10.96536c47.889,-0.57598 0.29016,-7.49646 -27.98072,-29.42285c-70.67287,-54.22916 21.92639,-33.74923 21.92639,-33.74923z" fill="#31aa47" fill-rule="evenodd" stroke="#007a3e" stroke-width="3" stroke-linejoin="miter"/><path d="M204.80473,135.80332l36.63348,-10.09489c17.30985,4.32638 33.17325,22.50237 33.17325,22.50237c31.73112,38.07994 -1.44213,50.19294 -1.44213,50.19294c0,0 -2.01811,2.01811 -0.86614,0.86181c36.0575,-29.99883 58.55987,-15.57757 58.55987,-15.57757c39.80789,19.03781 -44.42443,57.4079 -44.42443,57.4079c54.23349,7.49646 36.63348,17.02402 34.03506,17.02402c-65.19019,-0.87047 -54.22916,-16.45237 -54.22916,-16.45237c10.09489,-36.339 45.5764,-42.11616 45.5764,-42.11616c-21.34607,3.17441 -39.80789,23.36852 -43.84845,36.35199c-4.32638,12.97914 -36.0575,1.72795 -36.0575,1.72795c-88.8402,-39.22758 -27.11025,-101.82801 -27.11025,-101.82801z" fill="#31aa47" fill-rule="evenodd" stroke="#007a3e" stroke-width="3" stroke-linejoin="bevel"/><path d="M218.36418,187.14823c-12.40749,6.05866 -32.59726,60.86814 -16.15355,71.54334c11.82717,7.79095 19.90395,13.2693 1.44213,10.38938c-5.18819,-0.87047 -6.34449,-6.92914 -10.38071,2.29961c-2.88858,6.92481 -6.92481,5.19685 -8.94292,-5.76851c-0.57598,-3.16575 -2.88425,-0.85748 -10.96103,1.4378c-12.40749,3.4689 -13.84528,-3.74606 5.47835,-11.24253c13.55946,-5.19685 -0.57598,-38.07994 5.76851,-81.64256z" fill="#31aa47" fill-rule="evenodd" stroke="none" stroke-width="3" stroke-linejoin="miter"/><path d="M218.36418,187.14823c-12.40749,6.05866 -32.59726,60.86814 -16.15355,71.54334c11.82717,7.79095 19.90395,13.2693 1.44213,10.38938c-5.18819,-0.87047 -6.34449,-6.92914 -10.38071,2.29961c-2.88858,6.92481 -6.92481,5.19685 -8.94292,-5.76851c-0.57598,-3.16575 -2.88425,-0.85748 -10.96103,1.4378c-12.40749,3.4689 -13.84528,-3.74606 5.47835,-11.24253c13.55946,-5.19685 -0.57598,-38.07994 5.76851,-81.64256" fill="none" fill-rule="evenodd" stroke="#007a3e" stroke-width="3" stroke-linejoin="miter"/><path d="M275.05791,196.67147c-13.84528,3.74606 -25.67245,42.69648 -14.71142,53.08152c8.36693,7.78662 21.06025,19.60513 0.86614,10.67087c-4.03622,-1.73662 -5.47835,-5.48701 -7.78662,3.17008c-1.44646,6.92048 -4.61654,5.76418 -7.21496,-4.04055c-0.86614,-2.5941 -2.59843,-1.72795 -8.36693,2.59843c-8.36693,6.05866 -22.50237,6.92914 3.17008,-10.96103c9.80906,-6.92048 -3.46024,-25.96261 -0.86181,-52.78704z" fill="#31aa47" fill-rule="evenodd" stroke="none" stroke-width="3" stroke-linejoin="miter"/><path d="M276.05791,196.67147c-13.84528,3.74606 -25.67245,42.69648 -14.71142,53.08152c8.36693,7.78662 21.06025,19.60513 0.86614,10.67087c-4.03622,-1.73662 -5.47835,-5.48701 -7.78662,3.17008c-1.44646,6.92048 -4.61654,5.76418 -7.21496,-4.04055c-0.86614,-2.5941 -2.59843,-1.72795 -8.36693,2.59843c-8.36693,6.05866 -22.50237,6.92914 3.17008,-10.96103c9.80906,-6.92048 -3.46024,-25.96261 -0.86181,-52.78704" fill="none" fill-rule="evenodd" stroke="#007a3e" stroke-width="3" stroke-linejoin="miter"/><path d="M238.55829,61.37573c0,0 10.38504,-7.21063 23.07836,19.61379c0,0 29.71301,-27.69057 22.21222,16.72954c0,0 23.94017,11.25552 14.13977,26.54293c0,0 6.92048,13.55513 -20.77009,20.77009c-25.96261,6.63465 -27.11458,25.67679 -56.82759,23.07836c-31.73112,-2.88858 -41.83034,-79.04414 -16.15355,-86.25044c-0.00866,0.00433 11.23819,-31.44096 34.32088,-20.48426z" fill="#31aa47" fill-rule="evenodd" stroke="#007a3e" stroke-width="3" stroke-linejoin="miter"/><path d="M232.49529,68.88085c3.17008,-8.07678 10.38071,-12.68898 16.15355,-10.38071c5.48268,2.30827 7.50079,10.38504 4.32638,18.46182c-3.17008,7.78229 -10.38071,12.39883 -15.86339,10.38071c-5.76851,-2.3126 -7.50079,-10.6752 -4.61654,-18.46182z" fill="#ffffff" fill-rule="evenodd" stroke="#007a3e" stroke-width="3" stroke-linejoin="miter"/><path d="M243.17049,65.70211c1.4378,-4.03189 4.90236,-6.34449 7.78662,-5.18819c2.5941,1.1563 3.7504,5.18819 2.01811,9.23308c-1.44213,3.7504 -4.89803,6.063 -7.78662,4.90236c-2.5941,-1.15197 -3.74606,-5.18819 -2.01811,-8.94725z" fill="#000000" fill-rule="evenodd" stroke="none" stroke-width="3" stroke-linejoin="miter"/><path d="M247.50121,58.20564c7.78662,2.01811 8.65276,10.38504 5.47835,18.17166" fill="none" fill-rule="evenodd" stroke="#007a3e" stroke-width="3" stroke-linejoin="miter"/><path d="M202.78661,92.24503c0,0 8.94292,-5.19685 11.82717,5.18819" fill="none" fill-rule="evenodd" stroke="#007a3e" stroke-width="3" stroke-linejoin="miter"/><path d="M298.27013,124.5608c-47.889,17.30985 -87.98272,-8.36693 -89.13902,-32.02561z" fill="#31aa47" fill-rule="evenodd" stroke="none" stroke-width="3" stroke-linejoin="miter"/><path d="M298.27013,124.5608c-47.889,17.30985 -87.98272,-8.36693 -89.13902,-32.02561" fill="none" fill-rule="evenodd" stroke="#007a3e" stroke-width="3" stroke-linejoin="miter"/><path d="M267.68665,77.82377c2.88425,-7.79095 10.09922,-12.40316 15.86772,-10.38071c5.48268,2.30827 7.50079,10.67087 4.33071,18.45749c-3.17441,8.07678 -10.38504,12.68898 -15.86772,10.38504c-5.76851,-2.30827 -7.50079,-10.38504 -4.33071,-18.46182z" fill="#ffffff" fill-rule="evenodd" stroke="#007a3e" stroke-width="3" stroke-linejoin="miter"/><path d="M278.07602,74.3592c1.44213,-4.03189 4.90236,-6.34882 7.78662,-5.18386c2.59843,1.14764 3.7504,5.18386 2.02244,8.93859c-1.44646,4.03622 -4.9067,6.34882 -7.79095,5.18819c-2.5941,-1.15197 -3.7504,-5.18819 -2.01811,-8.94292z" fill="#000000" fill-rule="evenodd" stroke="none" stroke-width="3" stroke-linejoin="miter"/><path d="M282.69256,67.14856c7.78662,2.02244 8.3626,10.6752 5.19252,18.46182" fill="none" fill-rule="evenodd" stroke="#007a3e" stroke-width="3" stroke-linejoin="miter"/><path d="M224.99883,85.90054c0,0 31.15513,-12.97914 62.88625,14.13544z" fill="#31aa47" fill-rule="evenodd" stroke="#007a3e" stroke-width="3" stroke-linejoin="miter"/><path d="M197.01378,139.55805c0,0 0.57598,-8.08544 6.34882,-10.96103c5.76851,-3.17874 4.03622,26.53427 23.65434,21.05592c19.90395,-5.48701 23.07836,6.63032 25.67245,6.63032c4.04055,0.29016 19.03781,-11.82717 20.19411,-7.79095c1.15197,4.03622 -4.61654,26.54293 -32.59726,26.54293c-27.98072,0 -39.80789,-21.34607 -43.27246,-34.03939z" fill="#31aa47" fill-rule="evenodd" stroke="none" stroke-width="3" stroke-linejoin="miter"/><path d="M218.9445,82.7218c0,-3.17008 13.84528,0.29016 11.24686,0.87047c-2.30827,0.28583 -6.92481,4.32638 -6.92481,4.32638c0,0 -4.32638,-1.72795 -4.32205,-5.19685z" fill="#31aa47" fill-rule="evenodd" stroke="none" stroke-width="3" stroke-linejoin="miter"/><path d="M201.05,89.06629c-0.28583,-3.7504 13.2693,0.86614 10.09922,0.58032c-4.61654,-0.86181 -7.21063,4.03622 -7.21063,4.03622c-2.01811,0 -2.5941,-1.14764 -2.88858,-4.61654z" fill="#31aa47" fill-rule="evenodd" stroke="none" stroke-width="3" stroke-linejoin="miter"/><path d="M217.7882,86.48086c4.61221,-0.86614 -3.46457,14.71142 -3.17441,10.9567c0.28583,-7.78662 -8.65709,-6.92048 -8.65709,-6.92048c-0.28583,-2.01811 7.50079,-2.88858 11.8315,-4.03622z" fill="#31aa47" fill-rule="evenodd" stroke="none" stroke-width="3" stroke-linejoin="miter"/><path d="M223.5567,86.76235c0,0 26.82875,-7.49646 51.34491,5.77284c26.25277,14.13544 11.54134,15.57324 11.82717,15.00591c-2.5941,2.58543 -79.0398,-10.10355 -63.17208,-20.77875z" fill="#31aa47" fill-rule="evenodd" stroke="none" stroke-width="3" stroke-linejoin="miter"/><path d="M278.08035,203.31478l8.07678,-3.46457l37.50396,-8.94725l-8.94292,10.10355l-21.63623,12.40316c0,0 -2.3126,0 -4.04055,-2.59843c8.65276,-7.21496 17.01969,-8.94725 23.9445,-12.69331c-14.13977,3.74606 -15.5819,4.61221 -30.57915,13.84095z" fill="#31aa47" fill-rule="evenodd" stroke="none" stroke-width="3" stroke-linejoin="miter"/></g></g></svg>