<?xml version="1.0" encoding="UTF-8" standalone="no"?>
<!-- Created with Inkscape (http://www.inkscape.org/) -->

<svg
   width="357.69547mm"
   height="136.10266mm"
   viewBox="0 0 357.69547 136.10266"
   version="1.1"
   id="svg5"
   xml:space="preserve"
   xmlns="http://www.w3.org/2000/svg"
   xmlns:svg="http://www.w3.org/2000/svg"><defs
     id="defs2" /><g
     id="layer1"
     transform="translate(32.500859,-50.976765)"><path
       id="path132"
       style="fill:#006420;fill-opacity:1;stroke-width:4.08164"
       d="m -1.4872477,50.979317 c -0.3325682,-0.0076 -0.6659769,0.0018 -0.9989055,0.0279 -1.311061,-0.08026 -2.6251823,0.105007 -3.8597127,0.544153 -1.2345305,0.439147 -2.3633151,1.122287 -3.3155599,2.00763 -0.9522042,0.885347 -1.7072862,1.953874 -2.2184692,3.137793 -0.511184,1.183959 -0.767469,2.458257 -0.752409,3.74344 h -0.03152 c 0.0038,1.272572 0.275461,2.530715 0.7984,3.695899 0.522898,1.165184 1.28567,2.212421 2.2406905,3.076298 0.9550203,0.863878 2.0816716,1.525808 3.3098755,1.944584 1.2281631,0.418778 2.5317682,0.585416 3.8287068,0.489376 1.3182855,0.131673 2.650084,-0.0081 3.9098389,-0.410311 C 2.6834814,68.833838 3.8429456,68.177763 4.8281291,67.31062 5.8133126,66.443518 6.6021174,65.384555 7.14375,64.201249 7.6853827,63.017943 7.9679367,61.736769 7.9731567,60.440238 7.9711159,59.133055 7.6928191,57.840387 7.1556356,56.643571 6.6184519,55.446713 5.8342266,54.371555 4.8519002,53.485624 3.869533,52.599698 2.710273,51.922103 1.4474569,51.495565 0.50031411,51.175654 -0.48954314,51.002078 -1.4872477,50.979317 Z M 189.72899,53.196236 v 86.801934 h 19.13216 v -26.16791 h 4.4111 c 1.86531,0.0216 3.72194,-0.25181 5.49786,-0.80977 l 15.83107,26.97768 h 19.39985 v -1.91771 l -18.99057,-30.90251 c 13.0698,-6.73224 16.23942,-18.180802 15.83004,-31.921045 h -18.19062 c 0,13.330897 -3.84735,23.836271 -19.12286,23.836271 l -4.67517,-0.06666 v -45.83028 z m -77.56426,0.133325 v 83.073479 c 9.43183,1.43266 16.70786,5.22802 28.07684,5.117 20.23225,-0.2049 38.25916,-7.53756 38.25916,-32.86001 0,-22.510523 -13.34283,-34.928911 -31.78772,-34.786503 -5.29266,0.03335 -10.5275,1.076097 -15.41198,3.070097 V 53.329561 Z M 63.759416,73.846655 c -18.445305,0 -31.797543,12.22753 -31.797543,34.733285 0,25.29591 18.027031,33.06491 38.259681,32.86001 12.769794,-0.10653 19.950418,-3.82655 28.077356,-5.00125 L 98.26687,81.26429 C 87.395443,76.533761 75.656149,74.010166 63.759416,73.846655 Z m 226.886924,0.06666 c -18.4453,0 -31.79702,12.227325 -31.79702,34.733285 0,25.31795 18.0359,33.0645 38.25916,32.86001 12.7698,-0.10694 19.95063,-3.82656 28.08614,-5.00125 l -0.0408,-55.17441 C 314.28158,76.602543 302.54269,74.07907 290.64636,73.913315 Z M -30.408997,75.194893 V 90.808411 H -3.2230591 L -32.500859,137.97349 v 2.127 h 56.70455 V 123.81105 H -4.6963542 L 24.203691,77.34825 v -2.153357 z m 97.442631,13.869438 c 4.333878,-0.09192 8.629487,0.805478 12.547038,2.621029 v 32.9799 c -3.778775,1.08123 -7.700798,1.60869 -11.637532,1.56579 -9.713877,-0.14245 -16.730762,-4.44892 -16.730762,-17.64646 0,-14.536735 6.880849,-19.11981 15.821256,-19.520259 z m 76.377766,0.04444 c 8.9498,0.387101 15.83056,4.983524 15.83056,19.520259 0,13.19755 -7.01718,17.50453 -16.79432,17.64698 -3.91511,0.0196 -7.81212,-0.52519 -11.56519,-1.6154 l -0.0181,-32.18822 c 3.78695,-2.227837 8.12827,-3.391539 12.54704,-3.363619 z m 150.50916,0.01757 c 4.33348,-0.09355 8.6299,0.804171 12.54704,2.621028 l 0.005,32.917891 c -3.75959,1.09878 -7.66415,1.64712 -11.58741,1.62832 -9.77755,-0.14244 -16.79484,-4.44984 -16.79484,-17.64698 0,-14.536736 6.88077,-19.119811 15.83056,-19.520259 z m -262.299751,58.436229 -3.03289,14.11852 c 22.44816,16.5 49.769678,25.41206 77.846411,25.39328 l 0.0227,0.005 c 28.07265,0.0249 55.39346,-8.87615 77.84693,-25.36228 l -3.03341,-14.11851 c -22.50776,13.49999 -48.41807,20.58841 -74.81766,20.468 -26.407753,0.10939 -52.323144,-6.991 -74.832121,-20.50366 z" /></g></svg>
